<svg id="svg" xmlns="http://www.w3.org/2000/svg" xmlns:xlink="http://www.w3.org/1999/xlink" width="400" height="229" viewBox="0, 0, 400,229"><g id="svgg"><path id="path0" d="M216.340 2.596 C 205.825 7.833,199.327 17.027,195.104 32.644 C 193.761 37.609,191.266 38.599,184.431 36.878 C 179.396 35.611,165.631 36.241,163.690 37.828 C 162.159 39.079,151.135 43.621,143.809 46.017 C 131.451 50.060,128.613 55.657,129.309 74.610 C 129.756 86.783,130.492 91.137,134.529 105.500 C 136.922 114.014,137.872 117.499,138.904 121.540 C 143.704 140.345,161.336 158.613,175.500 159.458 C 178.250 159.622,181.850 160.308,183.500 160.983 C 189.805 163.561,212.927 160.715,219.230 156.585 C 221.392 155.168,221.816 155.184,224.050 156.766 C 243.867 170.794,267.557 151.879,266.912 122.544 C 266.827 118.670,267.280 112.125,267.920 108.000 C 270.580 90.830,271.155 82.681,270.776 67.500 C 270.350 50.486,269.881 48.489,264.734 41.780 C 259.353 34.768,247.335 28.813,241.775 30.405 C 240.524 30.763,234.173 31.296,227.663 31.590 L 215.826 32.124 216.546 29.812 C 218.783 22.635,218.560 22.760,222.355 26.555 C 228.267 32.467,236.927 28.103,242.473 16.416 C 248.595 3.514,232.058 -5.232,216.340 2.596 M237.245 7.282 C 239.548 9.938,239.508 10.139,236.018 13.483 C 234.378 15.054,232.291 18.289,231.382 20.670 C 230.472 23.052,229.256 25.000,228.679 25.000 C 226.903 25.000,223.000 20.757,223.000 18.826 C 223.000 17.553,222.255 17.000,220.539 17.000 C 215.551 17.000,212.436 23.239,210.013 38.081 L 208.775 45.662 203.173 44.784 C 196.410 43.723,196.958 44.487,198.666 38.500 C 199.451 35.750,200.454 31.925,200.896 30.000 C 205.072 11.787,228.469 -2.836,237.245 7.282 M249.703 36.195 C 258.826 40.092,264.899 48.830,267.139 61.286 C 268.360 68.080,268.062 72.768,265.053 94.000 C 262.431 112.506,262.059 116.129,262.025 123.500 C 261.949 140.286,256.803 149.583,244.703 154.795 C 236.536 158.313,224.424 154.131,225.337 148.110 C 225.638 146.124,226.348 140.000,226.915 134.500 C 227.482 129.000,228.698 117.656,229.617 109.290 C 231.750 89.867,230.709 73.299,226.882 65.764 C 226.397 64.809,226.000 63.553,226.000 62.973 C 226.000 61.644,222.426 56.466,218.647 52.324 L 215.750 49.147 222.885 44.574 C 226.810 42.058,230.376 40.000,230.810 40.000 C 231.245 40.000,232.140 39.460,232.799 38.801 C 236.043 35.557,244.982 34.178,249.703 36.195 M223.496 38.007 C 223.153 38.561,221.439 39.749,219.687 40.647 C 217.934 41.544,216.187 42.766,215.804 43.361 C 214.587 45.253,213.785 43.255,214.484 40.072 C 215.115 37.200,215.451 37.000,219.638 37.000 C 222.391 37.000,223.878 37.388,223.496 38.007 M181.384 41.169 C 187.268 42.839,187.818 43.765,183.380 44.529 C 181.246 44.896,177.306 45.820,174.626 46.581 C 169.239 48.112,159.847 46.753,161.865 44.735 C 165.269 41.331,175.423 39.476,181.384 41.169 M205.747 50.598 C 210.444 52.123,215.833 56.237,219.692 61.245 C 225.209 68.404,227.422 90.804,224.603 110.960 C 223.721 117.263,222.991 124.463,222.980 126.960 C 222.913 142.501,218.870 151.930,211.236 154.350 C 186.779 162.102,176.149 156.466,161.117 127.778 C 149.252 105.134,145.258 82.754,151.045 71.347 C 159.890 53.912,185.746 44.104,205.747 50.598 M162.500 51.000 C 164.097 51.686,164.164 51.874,162.833 51.930 C 154.671 52.274,143.850 71.038,143.849 84.847 C 143.847 105.108,157.094 138.018,170.878 152.000 C 173.968 155.134,169.044 154.219,164.228 150.764 C 156.237 145.032,148.173 132.537,143.404 118.500 C 132.126 85.299,130.347 61.125,138.648 53.878 C 142.614 50.416,157.079 48.670,162.500 51.000 M109.000 185.000 C 109.000 198.556,109.229 201.000,110.500 201.000 C 111.325 201.000,112.000 200.255,112.000 199.345 C 112.000 197.820,112.148 197.824,113.876 199.388 C 118.535 203.604,127.779 201.341,130.025 195.434 C 134.251 184.320,124.047 173.376,115.223 179.557 L 113.000 181.113 113.000 175.057 C 113.000 169.667,112.780 169.000,111.000 169.000 C 109.083 169.000,109.000 169.667,109.000 185.000 M140.500 178.945 C 134.586 181.366,132.154 190.740,135.897 196.696 C 139.651 202.671,150.860 203.340,154.356 197.798 C 156.161 194.936,154.189 194.526,149.985 196.888 C 145.571 199.369,143.086 199.083,139.966 195.733 C 136.184 191.674,137.256 191.000,147.500 191.000 C 158.031 191.000,158.218 190.851,155.579 184.534 C 153.345 179.189,146.293 176.575,140.500 178.945 M160.000 189.500 C 160.000 200.333,160.116 201.000,162.000 201.000 C 163.806 201.000,164.000 200.333,164.000 194.135 C 164.000 184.374,168.672 178.981,173.935 182.667 C 175.744 183.934,176.000 185.159,176.000 192.557 C 176.000 200.333,176.158 201.000,178.000 201.000 C 181.800 201.000,180.567 181.414,176.600 178.765 C 174.465 177.339,169.238 178.025,166.635 180.073 L 164.000 182.145 164.000 180.073 C 164.000 178.667,163.357 178.000,162.000 178.000 C 160.116 178.000,160.000 178.667,160.000 189.500 M190.500 178.945 C 184.586 181.366,182.154 190.740,185.897 196.696 C 189.651 202.671,200.860 203.340,204.356 197.798 C 205.769 195.557,204.362 194.243,202.202 195.788 C 197.016 199.496,193.457 199.480,189.966 195.733 C 186.184 191.674,187.256 191.000,197.500 191.000 C 208.031 191.000,208.218 190.851,205.579 184.534 C 203.345 179.189,196.293 176.575,190.500 178.945 M208.000 178.877 C 208.000 183.059,216.524 201.000,218.511 201.000 C 220.733 201.000,230.234 179.900,228.702 178.368 C 227.124 176.790,225.225 179.489,222.014 187.875 L 218.529 196.979 214.951 187.741 C 211.832 179.688,208.000 174.801,208.000 178.877 M235.973 179.704 C 223.369 188.391,234.838 208.162,247.775 200.052 C 251.542 197.691,253.000 194.560,253.000 188.835 C 253.000 180.459,242.807 174.993,235.973 179.704 M257.000 189.500 C 257.000 200.333,257.116 201.000,259.000 201.000 C 260.811 201.000,261.000 200.333,261.000 193.955 C 261.000 186.584,263.475 182.000,267.455 182.000 C 268.333 182.000,269.000 181.137,269.000 180.000 C 269.000 177.602,267.875 177.496,263.950 179.526 C 261.306 180.893,261.000 180.893,261.000 179.526 C 261.000 178.667,260.126 178.000,259.000 178.000 C 257.116 178.000,257.000 178.667,257.000 189.500 M273.400 181.400 C 265.331 189.469,272.294 203.668,283.308 201.602 C 288.751 200.581,293.562 195.000,289.000 195.000 C 287.900 195.000,287.000 195.395,287.000 195.879 C 287.000 199.853,276.217 198.613,274.621 194.455 C 273.401 191.277,274.119 191.000,283.579 191.000 L 293.159 191.000 292.448 187.765 C 290.289 177.932,280.229 174.571,273.400 181.400 M125.250 184.153 C 129.463 189.133,125.880 198.000,119.654 198.000 C 115.058 198.000,113.000 195.500,113.000 189.918 C 113.000 181.831,120.356 178.370,125.250 184.153 M150.545 183.455 C 154.425 187.334,153.685 188.000,145.500 188.000 C 140.949 188.000,138.000 187.589,138.000 186.955 C 138.000 184.924,142.943 181.000,145.500 181.000 C 146.925 181.000,149.195 182.105,150.545 183.455 M200.545 183.455 C 204.425 187.334,203.685 188.000,195.500 188.000 C 190.949 188.000,188.000 187.589,188.000 186.955 C 188.000 184.924,192.943 181.000,195.500 181.000 C 196.925 181.000,199.195 182.105,200.545 183.455 M247.250 184.153 C 251.344 188.992,247.887 198.000,241.936 198.000 C 234.597 198.000,231.612 188.311,237.413 183.321 C 240.726 180.472,244.398 180.783,247.250 184.153 M286.545 183.455 C 290.425 187.334,289.685 188.000,281.500 188.000 C 273.127 188.000,271.922 186.780,276.635 183.073 C 280.130 180.323,283.546 180.455,286.545 183.455 " stroke="none" fill="#000000" fill-rule="evenodd"></path></g></svg>