<svg id="svg" xmlns="http://www.w3.org/2000/svg" xmlns:xlink="http://www.w3.org/1999/xlink" width="400" height="311" viewBox="0, 0, 400,311"><g id="svgg"><path id="path0" d="M223.474 1.854 C 211.788 6.632,197.000 22.626,197.000 30.486 C 197.000 31.280,196.374 33.858,195.610 36.215 C 194.845 38.572,193.948 41.690,193.617 43.144 C 192.874 46.407,186.751 47.438,180.624 45.332 C 172.766 42.631,161.436 43.840,151.500 48.439 C 141.768 52.943,136.821 54.925,131.247 56.554 C 111.866 62.215,107.757 85.127,118.972 125.000 C 127.642 155.825,130.756 163.728,138.282 174.000 C 146.483 185.195,160.651 194.219,170.632 194.605 C 173.455 194.714,176.756 195.334,177.968 195.983 C 186.251 200.416,221.165 195.804,225.118 189.755 C 225.466 189.222,227.432 189.860,229.618 191.216 C 244.752 200.600,262.899 196.406,274.500 180.842 C 278.952 174.869,280.967 166.167,281.062 152.500 C 281.108 145.900,281.530 138.250,281.999 135.500 C 292.483 74.064,288.922 52.795,266.149 40.815 L 260.548 37.869 242.524 38.520 C 216.132 39.473,218.606 40.066,220.815 33.312 C 222.509 28.134,224.000 25.602,224.000 27.905 C 224.000 30.761,231.279 35.984,235.272 35.993 C 240.397 36.006,254.000 19.829,254.000 13.723 C 254.000 2.828,237.131 -3.731,223.474 1.854 M243.580 7.050 C 248.457 10.064,248.709 12.215,244.644 16.163 C 242.755 17.998,240.178 21.863,238.917 24.750 C 235.693 32.134,230.436 31.631,228.470 23.750 C 227.407 19.491,221.718 19.790,218.963 24.250 C 216.333 28.508,213.449 38.490,211.901 48.694 C 210.799 55.956,210.462 56.782,208.934 55.965 C 207.986 55.457,204.688 54.746,201.605 54.383 C 198.522 54.021,196.000 53.591,196.000 53.427 C 196.000 53.264,196.487 51.863,197.082 50.315 C 197.677 48.767,199.253 43.331,200.583 38.236 C 206.868 14.156,229.049 -1.931,243.580 7.050 M262.890 45.250 C 282.147 54.649,286.297 75.846,278.406 124.500 C 277.514 130.000,276.461 141.475,276.066 150.000 C 275.270 167.205,273.797 172.680,267.999 180.001 C 255.640 195.606,227.219 193.959,230.833 177.848 C 231.493 174.907,232.512 167.100,233.098 160.500 C 233.684 153.900,234.576 145.125,235.080 141.000 C 239.893 101.638,235.424 74.949,222.150 63.780 C 218.108 60.379,217.795 60.997,226.601 54.996 C 244.490 42.805,253.129 40.485,262.890 45.250 M230.620 45.309 C 229.585 45.964,226.098 48.412,222.870 50.748 C 216.818 55.127,216.601 55.046,217.635 48.795 L 218.247 45.089 224.374 44.737 C 227.743 44.544,230.950 44.325,231.500 44.251 C 232.050 44.178,231.654 44.654,230.620 45.309 M182.000 51.667 L 185.500 53.444 179.500 54.580 C 176.200 55.205,170.916 56.609,167.759 57.700 C 164.601 58.791,161.761 59.417,161.449 59.092 C 161.136 58.766,158.545 57.772,155.690 56.883 L 150.500 55.266 155.500 52.965 C 165.035 48.577,174.958 48.091,182.000 51.667 M199.000 59.410 C 228.180 64.624,235.336 84.044,229.620 142.500 C 225.072 189.007,225.160 188.874,197.014 192.088 L 186.183 193.324 180.784 190.683 C 163.013 181.988,143.116 146.369,136.831 112.000 C 132.265 87.031,149.396 66.343,179.904 59.984 C 190.528 57.770,189.922 57.788,199.000 59.410 M149.951 61.083 C 155.172 62.203,156.350 63.437,153.164 64.448 C 148.606 65.895,138.739 77.025,134.500 85.501 C 130.848 92.804,130.199 111.766,133.251 122.000 C 134.153 125.025,135.394 129.300,136.009 131.500 C 141.155 149.907,152.991 172.313,163.709 183.936 C 168.490 189.120,167.877 189.988,161.226 187.448 C 148.231 182.486,135.178 161.704,127.029 133.000 C 125.858 128.875,124.038 122.575,122.986 119.000 C 110.750 77.431,121.230 54.923,149.951 61.083 M50.000 237.500 L 50.000 264.000 52.500 264.000 C 54.624 264.000,55.000 263.538,55.000 260.929 C 55.000 258.117,55.135 257.992,56.595 259.452 C 64.607 267.464,79.205 264.366,84.087 253.616 C 92.320 235.487,72.641 216.718,58.458 229.171 L 55.000 232.207 55.000 221.604 L 55.000 211.000 52.500 211.000 L 50.000 211.000 50.000 237.500 M103.436 226.070 C 92.384 229.282,87.434 245.502,94.328 255.920 C 100.703 265.552,115.693 266.829,123.501 258.405 C 128.186 253.349,123.780 251.230,118.401 255.953 C 112.016 261.559,104.111 260.381,99.263 253.102 C 95.233 247.051,95.344 247.000,112.500 247.000 L 128.000 247.000 128.000 242.960 C 128.000 230.651,116.021 222.414,103.436 226.070 M149.278 226.326 C 147.506 226.972,144.694 228.697,143.028 230.160 L 140.000 232.820 140.000 229.410 C 140.000 226.439,139.678 226.000,137.500 226.000 L 135.000 226.000 135.000 245.000 L 135.000 264.000 138.000 264.000 L 141.000 264.000 141.000 251.535 L 141.000 239.070 144.050 235.596 C 149.598 229.277,157.809 228.738,160.018 234.547 C 160.558 235.968,161.000 243.176,161.000 250.565 L 161.000 264.000 164.000 264.000 L 167.000 264.000 167.000 250.943 C 167.000 227.689,162.540 221.494,149.278 226.326 M184.446 227.483 C 166.572 236.455,173.024 264.000,193.000 264.000 C 200.122 264.000,209.000 258.947,209.000 254.894 C 209.000 252.706,204.363 253.352,201.401 255.953 C 195.016 261.559,187.111 260.381,182.263 253.102 C 178.233 247.051,178.344 247.000,195.500 247.000 L 211.000 247.000 211.000 242.960 C 211.000 229.362,196.981 221.191,184.446 227.483 M262.459 226.880 C 245.366 234.644,248.621 261.262,266.965 263.722 C 278.970 265.332,288.156 257.297,288.260 245.094 C 288.387 230.312,275.276 221.057,262.459 226.880 M328.030 226.522 C 313.095 233.263,312.896 256.281,327.718 262.623 C 335.088 265.777,344.522 263.733,349.411 257.924 L 352.228 254.576 349.734 253.745 C 347.689 253.063,346.706 253.448,344.271 255.883 C 337.920 262.234,328.734 260.417,324.239 251.923 L 321.900 247.500 337.950 247.225 L 354.000 246.950 354.000 243.672 C 354.000 231.169,339.276 221.446,328.030 226.522 M214.273 229.184 C 215.018 231.008,218.506 239.588,222.024 248.250 C 228.047 263.080,228.577 264.000,231.103 264.000 C 232.579 264.000,234.015 263.438,234.295 262.750 C 234.576 262.063,237.999 253.668,241.902 244.095 C 250.197 223.755,249.658 226.000,246.243 226.000 C 243.610 226.000,243.209 226.709,237.378 241.665 L 231.271 257.329 225.233 241.915 C 219.340 226.870,219.119 226.492,216.056 226.184 L 212.918 225.867 214.273 229.184 M296.000 245.000 L 296.000 264.000 299.000 264.000 L 302.000 264.000 302.000 251.400 L 302.000 238.800 305.406 235.394 C 307.280 233.520,310.205 231.709,311.906 231.369 C 314.322 230.886,315.000 230.230,315.000 228.375 C 315.000 224.079,306.143 226.103,302.561 231.217 C 301.027 233.407,301.000 233.381,301.000 229.723 C 301.000 226.418,300.719 226.000,298.500 226.000 L 296.000 226.000 296.000 245.000 M74.738 233.210 C 84.515 242.341,79.515 259.000,67.000 258.990 C 59.595 258.984,55.091 253.674,55.035 244.885 C 54.961 233.117,67.000 225.984,74.738 233.210 M115.901 231.449 C 118.858 232.978,121.241 236.011,122.423 239.750 L 123.135 242.000 110.067 242.000 C 95.564 242.000,95.284 241.842,99.280 235.912 C 103.156 230.161,109.906 228.348,115.901 231.449 M198.901 231.449 C 201.858 232.978,204.241 236.011,205.423 239.750 L 206.135 242.000 193.067 242.000 C 178.564 242.000,178.284 241.842,182.280 235.912 C 186.156 230.161,192.906 228.348,198.901 231.449 M274.383 231.387 C 286.901 236.617,284.591 256.904,271.274 258.690 C 257.360 260.556,251.732 240.398,263.898 232.270 C 267.837 229.638,269.803 229.473,274.383 231.387 M344.118 233.882 C 351.246 241.010,350.141 242.000,335.052 242.000 L 322.104 242.000 323.092 239.250 C 326.625 229.419,337.005 226.770,344.118 233.882 " stroke="none" fill="#000000" fill-rule="evenodd"></path></g></svg>